<svg width="33" height="33" viewBox="0 0 33 33" fill="none" xmlns="http://www.w3.org/2000/svg">
<rect width="33" height="33" rx="5" fill="#384041"/>
<path d="M17 26C14.5 26 12.375 25.125 10.625 23.375C8.875 21.625 8 19.5 8 17C8 14.5 8.875 12.375 10.625 10.625C12.375 8.875 14.5 8 17 8C17.2333 8 17.4625 8.00833 17.6875 8.025C17.9125 8.04167 18.1333 8.06667 18.35 8.1C17.6667 8.58333 17.1208 9.2125 16.7125 9.9875C16.3042 10.7625 16.1 11.6 16.1 12.5C16.1 14 16.625 15.275 17.675 16.325C18.725 17.375 20 17.9 21.5 17.9C22.4167 17.9 23.2583 17.6958 24.025 17.2875C24.7917 16.8792 25.4167 16.3333 25.9 15.65C25.9333 15.8667 25.9583 16.0875 25.975 16.3125C25.9917 16.5375 26 16.7667 26 17C26 19.5 25.125 21.625 23.375 23.375C21.625 25.125 19.5 26 17 26ZM17 24C18.4667 24 19.7833 23.5958 20.95 22.7875C22.1167 21.9792 22.9667 20.925 23.5 19.625C23.1667 19.7083 22.8333 19.775 22.5 19.825C22.1667 19.875 21.8333 19.9 21.5 19.9C19.45 19.9 17.7042 19.1792 16.2625 17.7375C14.8208 16.2958 14.1 14.55 14.1 12.5C14.1 12.1667 14.125 11.8333 14.175 11.5C14.225 11.1667 14.2917 10.8333 14.375 10.5C13.075 11.0333 12.0208 11.8833 11.2125 13.05C10.4042 14.2167 10 15.5333 10 17C10 18.9333 10.6833 20.5833 12.05 21.95C13.4167 23.3167 15.0667 24 17 24Z" fill="white"/>
</svg>
