<svg width="33" height="33" viewBox="0 0 33 33" fill="none" xmlns="http://www.w3.org/2000/svg">
<rect width="33" height="33" rx="5" fill="#F0E790"/>
<path d="M16 10V6H18V10H16ZM22.65 12.75L21.25 11.35L24.075 8.5L25.475 9.925L22.65 12.75ZM24 18V16H28V18H24ZM24.075 25.475L21.25 22.65L22.65 21.25L25.5 24.05L24.075 25.475ZM11.35 12.75L8.525 9.925L9.95 8.5L12.75 11.35L11.35 12.75ZM11 24H15.5C15.9167 24 16.2708 23.8542 16.5625 23.5625C16.8542 23.2708 17 22.9167 17 22.5C17 22.0833 16.8583 21.7292 16.575 21.4375C16.2917 21.1458 15.9417 21 15.525 21H14.25L13.75 19.8C13.5167 19.25 13.15 18.8125 12.65 18.4875C12.15 18.1625 11.6 18 11 18C10.1667 18 9.45833 18.2917 8.875 18.875C8.29167 19.4583 8 20.1667 8 21C8 21.8333 8.29167 22.5417 8.875 23.125C9.45833 23.7083 10.1667 24 11 24ZM11 26C9.61667 26 8.4375 25.5125 7.4625 24.5375C6.4875 23.5625 6 22.3833 6 21C6 19.6167 6.4875 18.4375 7.4625 17.4625C8.4375 16.4875 9.61667 16 11 16C12 16 12.9125 16.2708 13.7375 16.8125C14.5625 17.3542 15.175 18.0833 15.575 19C16.5417 19 17.3542 19.3583 18.0125 20.075C18.6708 20.7917 19 21.65 19 22.65C18.9667 23.6 18.6125 24.3958 17.9375 25.0375C17.2625 25.6792 16.45 26 15.5 26H11ZM19 22.65C18.9167 22.3167 18.8333 21.9917 18.75 21.675C18.6667 21.3583 18.5833 21.0333 18.5 20.7C19.25 20.3833 19.8542 19.8917 20.3125 19.225C20.7708 18.5583 21 17.8167 21 17C21 15.9 20.6083 14.9583 19.825 14.175C19.0417 13.3917 18.1 13 17 13C16 13 15.125 13.325 14.375 13.975C13.625 14.625 13.1833 15.45 13.05 16.45C12.7167 16.3667 12.375 16.2917 12.025 16.225C11.675 16.1583 11.3333 16.0833 11 16C11.2333 14.5333 11.9208 13.3333 13.0625 12.4C14.2042 11.4667 15.5167 11 17 11C18.6667 11 20.0833 11.5833 21.25 12.75C22.4167 13.9167 23 15.3333 23 17C23 18.2833 22.6333 19.4375 21.9 20.4625C21.1667 21.4875 20.2 22.2167 19 22.65Z" fill="white"/>
</svg>
